<svg height="511pt" viewBox="0 0 511 511.99982" width="511pt" xmlns="http://www.w3.org/2000/svg"><path d="m334.28125 5.109375c-5.625 5.230469-7.558594 13.277344-4.921875 20.496094 9.371094 25.648437 14.125 52.75 14.125 80.554687 0 63.273438-24.640625 122.765625-69.378906 167.519532-44.746094 44.761718-104.253907 69.410156-167.550781 69.410156-27.738282 0-54.804688-4.75-80.449219-14.125-7.214844-2.636719-15.257813-.707032-20.492188 4.921875-5.234375 5.628906-6.582031 13.796875-3.425781 20.808593 20.492188 45.566407 53.339844 84.402344 94.984375 112.304688 42.679687 28.59375 92.480469 44.140625 144.027344 44.964844 36.664062.585937 72.347656-6.21875 106.058593-20.222656 32.480469-13.492188 61.652344-33.019532 86.703126-58.035157 25.046874-25.015625 44.609374-54.15625 58.148437-86.617187 13.535156-32.464844 20.390625-66.769532 20.386719-102.027344 0-1.328125-.007813-2.664062-.027344-3.996094-.753906-51.605468-16.292969-101.492187-44.929688-144.257812-27.929687-41.707032-66.816406-74.601563-112.449218-95.121094-7.011719-3.15625-15.179688-1.8125-20.808594 3.421875zm108.3125 108.40625c25.402344 37.933594 39.183594 82.195313 39.855469 127.992187.445312 32.527344-5.601563 64.15625-18.054688 94.023438-12.015625 28.820312-29.394531 54.703125-51.648437 76.929688-22.257813 22.230468-48.167969 39.574218-77.007813 51.554687-29.886719 12.417969-61.53125 18.449219-94.058593 17.929687-45.746094-.730468-89.933594-14.523437-127.796876-39.890624-29.859374-20.003907-54.621093-46.332032-72.621093-77.027344 21.191406 5.375 43.058593 8.089844 65.292969 8.089844 71.320312 0 138.367187-27.777344 188.789062-78.210938 50.40625-50.421875 78.167969-117.453125 78.167969-188.746094 0-22.289062-2.71875-44.195312-8.09375-65.40625 30.753906 18.03125 57.136719 42.839844 77.175781 72.761719zm0 0"/></svg>