<svg height="511pt" viewBox="1 1 511.99987 511" width="511pt" xmlns="http://www.w3.org/2000/svg"><path d="m256 109.363281c-81.136719 0-147.136719 65.996094-147.136719 147.136719 0 81.136719 66 147.136719 147.136719 147.136719 81.140625 0 147.136719-66 147.136719-147.136719 0-81.140625-65.996094-147.136719-147.136719-147.136719zm0 263.414063c-64.113281 0-116.277344-52.164063-116.277344-116.277344s52.164063-116.277344 116.277344-116.277344 116.277344 52.164063 116.277344 116.277344-52.164063 116.277344-116.277344 116.277344zm0 0"/><path d="m271.429688 58.886719v-43.085938c0-20.390625-30.859376-20.410156-30.859376 0v43.085938c0 20.390625 30.859376 20.410156 30.859376 0zm0 0"/><path d="m240.570312 454.109375v43.089844c0 20.390625 30.859376 20.410156 30.859376 0v-43.089844c0-20.386719-30.859376-20.40625-30.859376 0zm0 0"/><path d="m406.644531 127.675781 30.464844-30.46875c14.417969-14.414062-7.382813-36.253906-21.820313-21.820312l-30.464843 30.46875c-14.691407 14.691406 7.695312 35.945312 21.820312 21.820312zm0 0"/><path d="m105.355469 385.320312-30.46875 30.46875c-14.6875 14.691407 7.699219 35.945313 21.820312 21.820313l30.46875-30.464844c14.445313-14.445312-7.410156-36.234375-21.820312-21.824219zm0 0"/><path d="m496.699219 241.070312h-43.089844c-20.386719 0-20.410156 30.859376 0 30.859376h43.089844c20.390625 0 20.410156-30.859376 0-30.859376zm0 0"/><path d="m58.386719 241.070312h-43.085938c-20.390625 0-20.410156 30.859376 0 30.859376h43.085938c20.390625 0 20.410156-30.859376 0-30.859376zm0 0"/><path d="m406.644531 385.320312c-14.414062-14.414062-36.257812 7.386719-21.820312 21.824219l30.464843 30.464844c14.355469 14.355469 36.398438-7.246094 21.820313-21.820313zm0 0"/><path d="m105.355469 127.675781c14.394531 14.394531 36.226562-7.414062 21.820312-21.820312l-30.46875-30.46875c-14.414062-14.417969-36.25 7.390625-21.820312 21.820312zm0 0"/></svg>